<svg xmlns="http://www.w3.org/2000/svg" width="100%" height="100%" preserveAspectRatio="none" viewBox="0 0 205.6 205.6" class="" fill="rgba(25, 154, 42, 1.0)"><path d="M58.6,143.6a17.8,17.8,0,0,1-25.2,0h0L5.2,115.4a17.8,17.8,0,0,1,0-25.2h0L33.4,62a17.8,17.8,0,0,1,25.2,0h0L86.8,90.2a17.8,17.8,0,0,1,0,25.2h0ZM90.2,86.8a17.8,17.8,0,0,0,25.2,0h0l28.2-28.2a17.8,17.8,0,0,0,0-25.2h0L115.4,5.2a17.8,17.8,0,0,0-25.2,0h0L62,33.4a17.8,17.8,0,0,0,0,25.2h0Zm25.2,32a17.8,17.8,0,0,0-25.2,0h0L62,147a17.8,17.8,0,0,0,0,25.2h0l28.2,28.2a17.8,17.8,0,0,0,25.2,0h0l28.2-28.2a17.8,17.8,0,0,0,0-25.2h0Zm85-28.6L172.2,62A17.8,17.8,0,0,0,147,62h0L118.8,90.2a17.8,17.8,0,0,0,0,25.2h0L147,143.6a17.8,17.8,0,0,0,25.2,0h0l28.2-28.2a17.8,17.8,0,0,0,0-25.2Z" transform="translate(0)"></path></svg>